<mxfile host="app.diagrams.net" modified="2022-04-22T15:00:42.712Z" agent="5.0 (Windows NT 10.0; Win64; x64) AppleWebKit/537.36 (KHTML, like Gecko) Chrome/100.0.4896.127 Safari/537.36 Edg/100.0.1185.44" etag="ZfduzmNC4xGCnN22xk9l" version="17.4.6" type="github">
  <diagram id="RJkivHWMkw5wkFiHKZlC" name="Page-1">
    <mxGraphModel dx="1447" dy="877" grid="1" gridSize="10" guides="1" tooltips="1" connect="1" arrows="1" fold="1" page="1" pageScale="1" pageWidth="827" pageHeight="1169" math="0" shadow="0">
      <root>
        <mxCell id="0" />
        <mxCell id="1" parent="0" />
        <mxCell id="x-23tcM4M4CpjelfuUg2-1" value="课程" style="rhombus;whiteSpace=wrap;html=1;" vertex="1" parent="1">
          <mxGeometry x="334" y="505" width="160" height="80" as="geometry" />
        </mxCell>
        <mxCell id="x-23tcM4M4CpjelfuUg2-33" value="" style="edgeStyle=orthogonalEdgeStyle;rounded=0;orthogonalLoop=1;jettySize=auto;html=1;entryX=0.5;entryY=1;entryDx=0;entryDy=0;entryPerimeter=0;shape=link;" edge="1" parent="1" source="x-23tcM4M4CpjelfuUg2-13" target="x-23tcM4M4CpjelfuUg2-28">
          <mxGeometry relative="1" as="geometry" />
        </mxCell>
        <mxCell id="x-23tcM4M4CpjelfuUg2-13" value="学生" style="rounded=0;whiteSpace=wrap;html=1;" vertex="1" parent="1">
          <mxGeometry x="550" y="580" width="120" height="60" as="geometry" />
        </mxCell>
        <mxCell id="x-23tcM4M4CpjelfuUg2-39" value="" style="edgeStyle=orthogonalEdgeStyle;rounded=0;orthogonalLoop=1;jettySize=auto;html=1;" edge="1" parent="1" source="x-23tcM4M4CpjelfuUg2-27" target="x-23tcM4M4CpjelfuUg2-38">
          <mxGeometry relative="1" as="geometry" />
        </mxCell>
        <mxCell id="x-23tcM4M4CpjelfuUg2-27" value="学院" style="rounded=0;whiteSpace=wrap;html=1;" vertex="1" parent="1">
          <mxGeometry x="370" y="160" width="120" height="60" as="geometry" />
        </mxCell>
        <mxCell id="x-23tcM4M4CpjelfuUg2-28" value="专业" style="rhombus;whiteSpace=wrap;html=1;" vertex="1" parent="1">
          <mxGeometry x="530" y="430" width="160" height="80" as="geometry" />
        </mxCell>
        <mxCell id="x-23tcM4M4CpjelfuUg2-35" value="教师" style="rhombus;whiteSpace=wrap;html=1;" vertex="1" parent="1">
          <mxGeometry x="170" y="430" width="160" height="80" as="geometry" />
        </mxCell>
        <mxCell id="x-23tcM4M4CpjelfuUg2-38" value="学校" style="rounded=0;whiteSpace=wrap;html=1;" vertex="1" parent="1">
          <mxGeometry x="370" y="30" width="120" height="60" as="geometry" />
        </mxCell>
        <mxCell id="x-23tcM4M4CpjelfuUg2-40" value="advisor" style="rhombus;whiteSpace=wrap;html=1;" vertex="1" parent="1">
          <mxGeometry x="350" y="690" width="160" height="80" as="geometry" />
        </mxCell>
        <mxCell id="x-23tcM4M4CpjelfuUg2-41" value="" style="endArrow=none;html=1;rounded=0;entryX=0.5;entryY=1;entryDx=0;entryDy=0;" edge="1" parent="1" source="x-23tcM4M4CpjelfuUg2-40" target="x-23tcM4M4CpjelfuUg2-13">
          <mxGeometry width="50" height="50" relative="1" as="geometry">
            <mxPoint x="550" y="670" as="sourcePoint" />
            <mxPoint x="600" y="620" as="targetPoint" />
          </mxGeometry>
        </mxCell>
        <mxCell id="x-23tcM4M4CpjelfuUg2-51" value="" style="edgeStyle=orthogonalEdgeStyle;rounded=0;orthogonalLoop=1;jettySize=auto;html=1;" edge="1" parent="1" source="x-23tcM4M4CpjelfuUg2-50" target="x-23tcM4M4CpjelfuUg2-27">
          <mxGeometry relative="1" as="geometry" />
        </mxCell>
        <mxCell id="x-23tcM4M4CpjelfuUg2-50" value="系" style="rounded=0;whiteSpace=wrap;html=1;" vertex="1" parent="1">
          <mxGeometry x="370" y="280" width="120" height="60" as="geometry" />
        </mxCell>
        <mxCell id="x-23tcM4M4CpjelfuUg2-52" value="" style="endArrow=classic;html=1;rounded=0;exitX=1;exitY=0;exitDx=0;exitDy=0;entryX=0.381;entryY=0.998;entryDx=0;entryDy=0;entryPerimeter=0;" edge="1" parent="1" source="x-23tcM4M4CpjelfuUg2-35" target="x-23tcM4M4CpjelfuUg2-50">
          <mxGeometry width="50" height="50" relative="1" as="geometry">
            <mxPoint x="550" y="380" as="sourcePoint" />
            <mxPoint x="600" y="330" as="targetPoint" />
          </mxGeometry>
        </mxCell>
        <mxCell id="x-23tcM4M4CpjelfuUg2-53" value="" style="endArrow=classic;html=1;rounded=0;exitX=0;exitY=0;exitDx=0;exitDy=0;entryX=0.655;entryY=1.045;entryDx=0;entryDy=0;entryPerimeter=0;" edge="1" parent="1" source="x-23tcM4M4CpjelfuUg2-28" target="x-23tcM4M4CpjelfuUg2-50">
          <mxGeometry width="50" height="50" relative="1" as="geometry">
            <mxPoint x="550" y="380" as="sourcePoint" />
            <mxPoint x="600" y="330" as="targetPoint" />
          </mxGeometry>
        </mxCell>
        <mxCell id="x-23tcM4M4CpjelfuUg2-55" value="" style="endArrow=classic;html=1;rounded=0;exitX=0;exitY=0;exitDx=0;exitDy=0;entryX=0.563;entryY=1.034;entryDx=0;entryDy=0;entryPerimeter=0;" edge="1" parent="1" source="x-23tcM4M4CpjelfuUg2-40" target="x-23tcM4M4CpjelfuUg2-35">
          <mxGeometry width="50" height="50" relative="1" as="geometry">
            <mxPoint x="550" y="490" as="sourcePoint" />
            <mxPoint x="600" y="440" as="targetPoint" />
          </mxGeometry>
        </mxCell>
        <mxCell id="x-23tcM4M4CpjelfuUg2-56" value="" style="endArrow=none;html=1;rounded=0;exitX=1;exitY=1;exitDx=0;exitDy=0;entryX=0;entryY=0.5;entryDx=0;entryDy=0;" edge="1" parent="1" source="x-23tcM4M4CpjelfuUg2-1" target="x-23tcM4M4CpjelfuUg2-13">
          <mxGeometry width="50" height="50" relative="1" as="geometry">
            <mxPoint x="550" y="490" as="sourcePoint" />
            <mxPoint x="540" y="600" as="targetPoint" />
          </mxGeometry>
        </mxCell>
        <mxCell id="x-23tcM4M4CpjelfuUg2-58" value="" style="endArrow=none;html=1;rounded=0;exitX=1;exitY=1;exitDx=0;exitDy=0;entryX=0;entryY=0;entryDx=0;entryDy=0;" edge="1" parent="1" source="x-23tcM4M4CpjelfuUg2-35" target="x-23tcM4M4CpjelfuUg2-1">
          <mxGeometry width="50" height="50" relative="1" as="geometry">
            <mxPoint x="550" y="490" as="sourcePoint" />
            <mxPoint x="600" y="440" as="targetPoint" />
          </mxGeometry>
        </mxCell>
      </root>
    </mxGraphModel>
  </diagram>
</mxfile>
